<mxfile host="drawio-plugin" modified="2023-10-02T09:18:04.271Z" agent="5.0 (X11; Linux x86_64) AppleWebKit/537.36 (KHTML, like Gecko) Chrome/111.0.0.0 Safari/537.36" version="20.5.3" etag="EfqrONing565UJB1cPIz" type="embed"><diagram id="Xob-G5oBjvJTzFHLvzyE" name="Page-1"><mxGraphModel dx="772" dy="525" grid="1" gridSize="10" guides="1" tooltips="1" connect="1" arrows="1" fold="1" page="1" pageScale="1" pageWidth="827" pageHeight="1169" math="0" shadow="0"><root><mxCell id="0"/><mxCell id="1" parent="0"/><mxCell id="2" value="" style="html=1;verticalAlign=bottom;startArrow=circle;startFill=1;endArrow=open;startSize=6;endSize=8;rounded=0;" edge="1" parent="1"><mxGeometry width="80" relative="1" as="geometry"><mxPoint x="160" y="30" as="sourcePoint"/><mxPoint x="160" y="100" as="targetPoint"/></mxGeometry></mxCell><mxCell id="3" value="Identification" style="html=1;rounded=1;absoluteArcSize=1;arcSize=10;" vertex="1" parent="1"><mxGeometry x="120" y="100" width="80" height="30" as="geometry"/></mxCell><mxCell id="4" value="" style="endArrow=open;html=1;rounded=0;align=center;verticalAlign=top;endFill=0;labelBackgroundColor=none;endSize=6;" edge="1" source="3" parent="1"><mxGeometry relative="1" as="geometry"><mxPoint x="160" y="190" as="targetPoint"/><Array as="points"><mxPoint x="160" y="170"/></Array></mxGeometry></mxCell></root></mxGraphModel></diagram></mxfile>